<?xml version="1.0" encoding="UTF-8"?>
<svg xmlns="http://www.w3.org/2000/svg" version="1.1" viewBox="0 0 165 518">
  <defs>
    <style>
      .cls-1 {
        fill: #f3d61e;
      }

      .cls-2 {
        fill: #76bf77;
      }

      .cls-3 {
        fill: #009b6d;
      }

      .cls-3, .cls-4 {
        fill-rule: evenodd;
      }

      .cls-5 {
        fill: #50b053;
      }

      .cls-6, .cls-4 {
        fill: #dd373b;
      }

      .cls-7 {
        fill: #fff;
      }

      .cls-8 {
        fill: #eb8333;
      }

      .cls-9 {
        fill: #f1b318;
      }
    </style>
  </defs>
  <!-- Generator: Adobe Illustrator 28.7.1, SVG Export Plug-In . SVG Version: 1.2.0 Build 142)  -->
  <g>
    <g id="Calque_1">
      <g>
        <g>
          <path class="cls-3" d="M142.411,70.014l-120,.013V19.999C22.421,8.957,31.421.01,42.464.009L122.443,0c11.059-.001,19.978,8.968,19.968,20.026v49.988Z"/>
          <rect class="cls-5" x="22.411" y="70.021" width="120" height="70.03"/>
          <rect class="cls-2" x="22.411" y="140.05" width="120" height="70.03"/>
          <rect class="cls-1" x="22.411" y="210.08" width="120" height="70.03"/>
          <rect class="cls-9" x="22.411" y="280.11" width="120" height="70.03"/>
          <rect class="cls-8" x="22.411" y="350.139" width="120" height="70.03"/>
          <path class="cls-4" d="M122.421,489.916l-79.979.009c-11.059.001-20.041-8.935-20.031-19.952v-49.803l120-.013v49.843c-.01,11.002-8.947,19.915-19.99,19.916Z"/>
        </g>
        <g>
          <g>
            <rect class="cls-6" x="7.952" y="400.955" width="149.096" height="109.11" rx="20" ry="20"/>
            <path class="cls-7" d="M137.169,400.955c10.979,0,19.88,8.882,19.88,19.838v69.434c0,10.956-8.9,19.838-19.88,19.838H27.831c-10.979,0-19.88-8.882-19.88-19.838v-69.434c0-10.956,8.9-19.838,19.88-19.838h109.337M137.169,393.019H27.831c-15.346,0-27.831,12.459-27.831,27.773v69.434c0,15.314,12.485,27.773,27.831,27.773h109.337c15.346,0,27.831-12.459,27.831-27.773v-69.434c0-15.314-12.485-27.773-27.831-27.773h0Z"/>
          </g>
          <path d="M80.83,484.166h-15.104v-57.313h33.547v12.427h-18.443v10.937h17.006v12.427h-17.006v21.522Z"/>
        </g>
      </g>
    </g>
  </g>
</svg>