<?xml version="1.0" encoding="UTF-8"?>
<svg xmlns="http://www.w3.org/2000/svg" version="1.1" viewBox="0 0 165 490">
  <defs>
    <style>
      .cls-1 {
        fill: #f3d61e;
      }

      .cls-2 {
        fill: #76bf77;
      }

      .cls-3 {
        fill: #009b6d;
      }

      .cls-3, .cls-4 {
        fill-rule: evenodd;
      }

      .cls-5 {
        fill: #50b053;
      }

      .cls-6 {
        fill: #fff;
      }

      .cls-4 {
        fill: #dd373b;
      }

      .cls-7 {
        fill: #eb8333;
      }

      .cls-8 {
        fill: #f1b318;
      }
    </style>
  </defs>
  <!-- Generator: Adobe Illustrator 28.7.1, SVG Export Plug-In . SVG Version: 1.2.0 Build 142)  -->
  <g>
    <g id="Calque_1">
      <g>
        <g>
          <path class="cls-3" d="M142.099,70.025l-120,.013V20.002C22.109,8.958,31.109.01,42.153.009L122.132,0c11.059-.001,19.978,8.97,19.968,20.03v49.995Z"/>
          <rect class="cls-5" x="22.099" y="70.032" width="120" height="70.04"/>
          <rect class="cls-2" x="22.099" y="140.072" width="120" height="70.04"/>
          <rect class="cls-1" x="22.099" y="210.112" width="120" height="70.04"/>
          <rect class="cls-8" x="22.099" y="280.153" width="120" height="70.04"/>
          <rect class="cls-7" x="22.099" y="350.193" width="120" height="70.04"/>
          <path class="cls-4" d="M122.109,489.991l-79.979.009c-11.059.001-20.041-8.936-20.031-19.955v-49.81l120-.013v49.851c-.01,11.003-8.947,19.918-19.99,19.92Z"/>
        </g>
        <g>
          <g>
            <rect class="cls-7" x="7.952" y="330.836" width="149.096" height="109.127" rx="20" ry="20"/>
            <path class="cls-6" d="M137.169,330.836c10.979,0,19.88,8.883,19.88,19.841v69.444c0,10.958-8.9,19.841-19.88,19.841H27.831c-10.979,0-19.88-8.883-19.88-19.841v-69.444c0-10.958,8.9-19.841,19.88-19.841h109.337M137.169,322.9H27.831c-15.346,0-27.831,12.461-27.831,27.778v69.444c0,15.317,12.485,27.778,27.831,27.778h109.337c15.346,0,27.831-12.461,27.831-27.778v-69.444c0-15.317-12.485-27.778-27.831-27.778h0Z"/>
          </g>
          <path d="M99.351,413.955h-33.702v-57.11h33.702v12.383h-18.365v8.984h17.006v12.383h-17.006v10.781h18.365v12.578Z"/>
        </g>
      </g>
    </g>
  </g>
</svg>