<?xml version="1.0" encoding="UTF-8"?>
<svg xmlns="http://www.w3.org/2000/svg" version="1.1" viewBox="0 0 165 490">
  <defs>
    <style>
      .cls-1 {
        fill: #f3d61e;
      }

      .cls-2 {
        fill: #76bf77;
      }

      .cls-3 {
        fill: #009b6d;
      }

      .cls-3, .cls-4 {
        fill-rule: evenodd;
      }

      .cls-5 {
        fill: #50b053;
      }

      .cls-6 {
        fill: #fff;
      }

      .cls-4 {
        fill: #dd373b;
      }

      .cls-7 {
        fill: #eb8333;
      }

      .cls-8 {
        fill: #f1b318;
      }
    </style>
  </defs>
  <!-- Generator: Adobe Illustrator 28.7.1, SVG Export Plug-In . SVG Version: 1.2.0 Build 142)  -->
  <g>
    <g id="Calque_1">
      <g>
        <g>
          <path class="cls-3" d="M143.013,70.025l-120,.013V20.002C23.023,8.958,32.022.01,43.066.009L123.045,0c11.059-.001,19.978,8.97,19.968,20.03v49.995Z"/>
          <rect class="cls-5" x="23.013" y="70.032" width="120" height="70.04"/>
          <rect class="cls-2" x="23.013" y="140.072" width="120" height="70.04"/>
          <rect class="cls-1" x="23.013" y="210.112" width="120" height="70.04"/>
          <rect class="cls-8" x="23.013" y="280.153" width="120" height="70.04"/>
          <rect class="cls-7" x="23.013" y="350.193" width="120" height="70.04"/>
          <path class="cls-4" d="M123.022,489.991l-79.979.009c-11.059.001-20.041-8.936-20.031-19.955v-49.81l120-.013v49.851c-.01,11.003-8.947,19.918-19.99,19.92Z"/>
        </g>
        <g>
          <g>
            <rect class="cls-1" x="7.952" y="190.476" width="149.096" height="109.127" rx="20" ry="20"/>
            <path class="cls-6" d="M137.169,190.476c10.979,0,19.88,8.883,19.88,19.841v69.444c0,10.958-8.9,19.841-19.88,19.841H27.831c-10.979,0-19.88-8.883-19.88-19.841v-69.444c0-10.958,8.9-19.841,19.88-19.841h109.337M137.169,182.54H27.831c-15.346,0-27.831,12.461-27.831,27.778v69.444c0,15.317,12.485,27.778,27.831,27.778h109.337c15.346,0,27.831-12.461,27.831-27.778v-69.444c0-15.317-12.485-27.778-27.831-27.778h0Z"/>
          </g>
          <path d="M87.315,229.453c-3.65,0-6.498,1.504-8.542,4.512-2.045,3.008-3.067,7.155-3.067,12.442,0,10.99,4.155,16.485,12.464,16.485,2.51,0,4.944-.352,7.3-1.055,2.355-.703,4.723-1.549,7.105-2.539v13.047c-4.737,2.109-10.095,3.164-16.074,3.164-8.568,0-15.137-2.5-19.705-7.5-4.569-5-6.853-12.227-6.853-21.68,0-5.911,1.107-11.107,3.32-15.586,2.213-4.479,5.397-7.923,9.551-10.332,4.155-2.408,9.04-3.613,14.657-3.613,6.135,0,11.998,1.342,17.589,4.023l-4.698,12.149c-2.097-.989-4.193-1.822-6.29-2.5-2.097-.677-4.349-1.016-6.756-1.016Z"/>
        </g>
      </g>
    </g>
  </g>
</svg>