<?xml version="1.0" encoding="UTF-8"?>
<svg xmlns="http://www.w3.org/2000/svg" version="1.1" viewBox="0 0 200 60">
  <defs>
    <style>
      .cls-1 {
        fill-rule: evenodd;
      }

      .cls-1, .cls-2 {
        fill: #fff;
      }

      .cls-3 {
        fill: #009b6d;
      }

      .cls-4 {
        fill: #f3d61e;
      }

      .cls-5 {
        fill: #76bf77;
      }

      .cls-6 {
        fill: #50b053;
      }

      .cls-7 {
        fill: #dd373b;
      }

      .cls-8 {
        fill: #eb8333;
      }

      .cls-9 {
        fill: #f1b318;
      }
    </style>
  </defs>
  <!-- Generator: Adobe Illustrator 28.7.1, SVG Export Plug-In . SVG Version: 1.2.0 Build 142)  -->
  <g>
    <g id="Calque_1">
      <g>
        <g>
          <path class="cls-1" d="M14.76,49.231c-4.788,0-8.669-3.676-8.669-8.211v-22.04c0-4.535,3.881-8.211,8.669-8.211h170.479c4.788,0,8.669,3.676,8.669,8.211v22.04c0,4.535-3.881,8.211-8.669,8.211H14.76Z"/>
          <path class="cls-2" d="M185.24,10.769c4.788,0,8.669,3.676,8.669,8.21v22.041c0,4.535-3.881,8.211-8.669,8.211H14.76c-4.788,0-8.669-3.676-8.669-8.211v-22.041c0-4.535,3.881-8.21,8.669-8.21h170.479M185.24,5H14.76C6.621,5,0,11.271,0,18.98v22.041c0,7.709,6.621,13.98,14.76,13.98h170.479c8.139,0,14.76-6.271,14.76-13.98v-22.041c0-7.708-6.621-13.98-14.76-13.98h0Z"/>
        </g>
        <rect class="cls-6" x="31.472" y="10.645" width="25.381" height="38.71"/>
        <rect class="cls-5" x="56.853" y="10.645" width="25.381" height="38.71"/>
        <rect class="cls-4" x="82.233" y="10.645" width="25.381" height="38.71"/>
        <rect class="cls-8" x="143.147" y="10.645" width="25.381" height="38.71"/>
        <path class="cls-7" d="M168.528,10.645h16.842c4.713,0,8.539,3.826,8.539,8.539v21.632c0,4.713-3.826,8.539-8.539,8.539h-16.842V10.645h0Z"/>
        <path class="cls-3" d="M6.091,10.645h16.842c4.713,0,8.539,3.826,8.539,8.539v21.632c0,4.713-3.826,8.539-8.539,8.539H6.091V10.645h0Z" transform="translate(37.563 60) rotate(180)"/>
        <g>
          <rect class="cls-9" x="107.614" y="5.806" width="35.533" height="48.387" rx="10" ry="10"/>
          <path class="cls-2" d="M132.995,5.806c5.607,0,10.152,4.333,10.152,9.677v29.032c0,5.345-4.545,9.677-10.152,9.677h-15.228c-5.607,0-10.152-4.333-10.152-9.677V15.484c0-5.345,4.545-9.677,10.152-9.677h15.228M132.995,0h-15.228c-8.957,0-16.244,6.946-16.244,15.484v29.032c0,8.538,7.287,15.484,16.244,15.484h15.228c8.957,0,16.244-6.946,16.244-15.484V15.484c0-8.538-7.287-15.484-16.244-15.484h0Z"/>
        </g>
        <path d="M135.01,29.561c0,3.459-.999,6.124-2.997,7.995s-4.806,2.807-8.425,2.807h-7.034v-20.725h7.525c3.49,0,6.184.851,8.083,2.552s2.848,4.158,2.848,7.371ZM128.913,29.759c0-1.9-.394-3.308-1.182-4.224s-1.985-1.375-3.591-1.375h-1.71v11.61h1.309c1.785,0,3.093-.493,3.926-1.482.833-.987,1.249-2.497,1.249-4.529Z"/>
      </g>
    </g>
  </g>
</svg>