<?xml version="1.0" encoding="UTF-8"?>
<svg xmlns="http://www.w3.org/2000/svg" version="1.1" viewBox="0 0 165 490">
  <defs>
    <style>
      .cls-1 {
        fill: #f3d61e;
      }

      .cls-2 {
        fill: #76bf77;
      }

      .cls-3 {
        fill: #009b6d;
      }

      .cls-3, .cls-4 {
        fill-rule: evenodd;
      }

      .cls-5 {
        fill: #50b053;
      }

      .cls-6 {
        fill: #fff;
      }

      .cls-4 {
        fill: #dd373b;
      }

      .cls-7 {
        fill: #eb8333;
      }

      .cls-8 {
        fill: #f1b318;
      }
    </style>
  </defs>
  <!-- Generator: Adobe Illustrator 28.7.1, SVG Export Plug-In . SVG Version: 1.2.0 Build 142)  -->
  <g>
    <g id="Calque_1">
      <g>
        <g>
          <path class="cls-3" d="M143.919,70.025l-120,.013V20.002C23.929,8.958,32.929.01,43.972.009L123.951,0c11.059-.001,19.978,8.97,19.968,20.03v49.995Z"/>
          <rect class="cls-5" x="23.919" y="70.032" width="120" height="70.04"/>
          <rect class="cls-2" x="23.919" y="140.072" width="120" height="70.04"/>
          <rect class="cls-1" x="23.919" y="210.112" width="120" height="70.04"/>
          <rect class="cls-8" x="23.919" y="280.153" width="120" height="70.04"/>
          <rect class="cls-7" x="23.919" y="350.193" width="120" height="70.04"/>
          <path class="cls-4" d="M123.929,489.991l-79.979.009c-11.059.001-20.041-8.936-20.031-19.955v-49.81l120-.013v49.851c-.01,11.003-8.947,19.918-19.99,19.92Z"/>
        </g>
        <g>
          <g>
            <rect class="cls-2" x="7.952" y="120.296" width="149.096" height="109.127" rx="20" ry="20"/>
            <path class="cls-6" d="M137.169,120.296c10.979,0,19.88,8.883,19.88,19.841v69.444c0,10.958-8.9,19.841-19.88,19.841H27.831c-10.979,0-19.88-8.883-19.88-19.841v-69.444c0-10.958,8.9-19.841,19.88-19.841h109.337M137.169,112.36H27.831c-15.346,0-27.831,12.461-27.831,27.778v69.444c0,15.317,12.485,27.778,27.831,27.778h109.337c15.346,0,27.831-12.461,27.831-27.778v-69.444c0-15.317-12.485-27.778-27.831-27.778h0Z"/>
          </g>
          <path d="M60.64,146.229h19.802c7.713,0,13.44,1.152,17.181,3.457,3.74,2.305,5.611,5.893,5.611,10.762,0,3.203-.815,5.938-2.446,8.203-1.631,2.266-3.78,3.725-6.445,4.375v.391c3.52.938,6.07,2.5,7.649,4.688,1.578,2.188,2.368,5.026,2.368,8.516,0,5.183-1.936,9.265-5.805,12.246-3.87,2.982-9.144,4.473-15.822,4.473h-22.093v-57.11ZM75.977,168.143h4.62c2.2,0,3.902-.455,5.106-1.367,1.204-.911,1.805-2.266,1.805-4.063,0-3.203-2.407-4.805-7.222-4.805h-4.31v10.234ZM75.977,179.432v11.992h5.397c4.788,0,7.183-2.031,7.183-6.094,0-1.9-.641-3.359-1.922-4.375s-3.139-1.523-5.572-1.523h-5.086Z"/>
        </g>
      </g>
    </g>
  </g>
</svg>