<?xml version="1.0" encoding="UTF-8"?>
<svg xmlns="http://www.w3.org/2000/svg" version="1.1" viewBox="0 0 200 60">
  <defs>
    <style>
      .cls-1 {
        fill-rule: evenodd;
      }

      .cls-1, .cls-2 {
        fill: #fff;
      }

      .cls-3 {
        fill: #009b6d;
      }

      .cls-4 {
        fill: #f3d61e;
      }

      .cls-5 {
        fill: #76bf77;
      }

      .cls-6 {
        fill: #50b053;
      }

      .cls-7 {
        fill: #dd373b;
      }

      .cls-8 {
        fill: #eb8333;
      }

      .cls-9 {
        fill: #f1b318;
      }
    </style>
  </defs>
  <!-- Generator: Adobe Illustrator 28.7.1, SVG Export Plug-In . SVG Version: 1.2.0 Build 142)  -->
  <g>
    <g id="Calque_1">
      <g>
        <g>
          <path class="cls-1" d="M14.76,49.231c-4.788,0-8.669-3.676-8.669-8.211v-22.04c0-4.535,3.881-8.211,8.669-8.211h170.479c4.788,0,8.669,3.676,8.669,8.211v22.04c0,4.535-3.881,8.211-8.669,8.211H14.76Z"/>
          <path class="cls-2" d="M185.24,10.769c4.788,0,8.669,3.676,8.669,8.21v22.041c0,4.535-3.881,8.21-8.669,8.21H14.76c-4.788,0-8.669-3.676-8.669-8.21v-22.041c0-4.535,3.881-8.21,8.669-8.21h170.479M185.24,5H14.76C6.621,5,0,11.271,0,18.98v22.041c0,7.708,6.621,13.98,14.76,13.98h170.479c8.139,0,14.76-6.271,14.76-13.98v-22.041c0-7.708-6.621-13.98-14.76-13.98h0Z"/>
        </g>
        <rect class="cls-6" x="31.472" y="10.645" width="25.381" height="38.71"/>
        <rect class="cls-4" x="92.386" y="10.645" width="25.381" height="38.71"/>
        <rect class="cls-9" x="117.766" y="10.645" width="25.381" height="38.71"/>
        <rect class="cls-8" x="143.147" y="10.645" width="25.381" height="38.71"/>
        <path class="cls-7" d="M168.528,10.645h16.842c4.713,0,8.539,3.826,8.539,8.539v21.632c0,4.713-3.826,8.539-8.539,8.539h-16.842V10.645h0Z"/>
        <path class="cls-3" d="M6.091,10.645h16.842c4.713,0,8.539,3.826,8.539,8.539v21.632c0,4.713-3.826,8.539-8.539,8.539H6.091V10.645h0Z" transform="translate(37.563 60) rotate(180)"/>
        <g>
          <rect class="cls-5" x="56.853" y="5.806" width="35.533" height="48.387" rx="10" ry="10"/>
          <path class="cls-2" d="M82.233,5.806c5.607,0,10.152,4.333,10.152,9.677v29.032c0,5.345-4.545,9.677-10.152,9.677h-15.228c-5.607,0-10.152-4.333-10.152-9.677V15.484c0-5.345,4.545-9.677,10.152-9.677h15.228M82.233,0h-15.228c-8.957,0-16.244,6.946-16.244,15.484v29.032c0,8.538,7.287,15.484,16.244,15.484h15.228c8.957,0,16.244-6.946,16.244-15.484V15.484c0-8.538-7.287-15.484-16.244-15.484h0Z"/>
        </g>
        <path d="M67.07,19.637h7.584c2.954,0,5.148.418,6.581,1.255,1.433.835,2.149,2.138,2.149,3.905,0,1.162-.312,2.155-.937,2.977s-1.447,1.351-2.469,1.588v.142c1.348.34,2.325.907,2.93,1.701s.907,1.824.907,3.09c0,1.881-.741,3.363-2.223,4.444-1.482,1.083-3.502,1.624-6.06,1.624h-8.462v-20.725ZM72.945,27.59h1.77c.843,0,1.495-.165,1.956-.496s.692-.822.692-1.474c0-1.162-.922-1.744-2.766-1.744h-1.651v3.714ZM72.945,31.687v4.352h2.067c1.834,0,2.751-.737,2.751-2.211,0-.69-.245-1.219-.736-1.588s-1.202-.553-2.134-.553h-1.948Z"/>
      </g>
    </g>
  </g>
</svg>