<?xml version="1.0" encoding="UTF-8"?>
<svg xmlns="http://www.w3.org/2000/svg" version="1.1" viewBox="0 0 165 490">
  <defs>
    <style>
      .cls-1 {
        fill: #f3d61e;
      }

      .cls-2 {
        fill: #76bf77;
      }

      .cls-3 {
        fill: #009b6d;
      }

      .cls-3, .cls-4 {
        fill-rule: evenodd;
      }

      .cls-5 {
        fill: #50b053;
      }

      .cls-6 {
        fill: #fff;
      }

      .cls-4 {
        fill: #dd373b;
      }

      .cls-7 {
        fill: #eb8333;
      }

      .cls-8 {
        fill: #f1b318;
      }
    </style>
  </defs>
  <!-- Generator: Adobe Illustrator 28.7.1, SVG Export Plug-In . SVG Version: 1.2.0 Build 142)  -->
  <g>
    <g id="Calque_1">
      <g>
        <g>
          <path class="cls-3" d="M143.53,70.025l-120,.013V20.002C23.54,8.958,32.539.01,43.583.009L123.562,0c11.059-.001,19.978,8.97,19.968,20.03v49.995Z"/>
          <rect class="cls-5" x="23.53" y="70.032" width="120" height="70.04"/>
          <rect class="cls-2" x="23.53" y="140.072" width="120" height="70.04"/>
          <rect class="cls-1" x="23.53" y="210.112" width="120" height="70.04"/>
          <rect class="cls-8" x="23.53" y="280.153" width="120" height="70.04"/>
          <rect class="cls-7" x="23.53" y="350.193" width="120" height="70.04"/>
          <path class="cls-4" d="M123.539,489.991l-79.979.009c-11.059.001-20.041-8.936-20.031-19.955v-49.81l120-.013v49.851c-.01,11.003-8.947,19.918-19.99,19.92Z"/>
        </g>
        <g>
          <g>
            <rect class="cls-5" x="7.952" y="50.116" width="149.096" height="109.127" rx="20" ry="20"/>
            <path class="cls-6" d="M137.169,50.116c10.979,0,19.88,8.883,19.88,19.841v69.444c0,10.958-8.9,19.841-19.88,19.841H27.831c-10.979,0-19.88-8.883-19.88-19.841v-69.444c0-10.958,8.9-19.841,19.88-19.841h109.337M137.169,42.18H27.831c-15.346,0-27.831,12.461-27.831,27.778v69.444c0,15.317,12.485,27.778,27.831,27.778h109.337c15.346,0,27.831-12.461,27.831-27.778v-69.444c0-15.317-12.485-27.778-27.831-27.778h0Z"/>
          </g>
          <path d="M94.595,133.241l-2.796-10.703h-18.443l-2.873,10.703h-16.851l18.521-57.344h20.462l18.754,57.344h-16.773ZM88.615,109.881l-2.446-9.375c-.57-2.083-1.262-4.778-2.077-8.086-.815-3.307-1.353-5.677-1.611-7.109-.233,1.328-.693,3.516-1.378,6.563-.686,3.047-2.207,9.05-4.562,18.008h12.075Z"/>
        </g>
      </g>
    </g>
  </g>
</svg>