<?xml version="1.0" encoding="UTF-8"?>
<svg xmlns="http://www.w3.org/2000/svg" version="1.1" viewBox="0 0 210 60">
  <defs>
    <style>
      .cls-1 {
        fill-rule: evenodd;
      }

      .cls-1, .cls-2 {
        fill: #fff;
      }

      .cls-3 {
        fill: #009b6d;
      }

      .cls-4 {
        fill: #f3d61e;
      }

      .cls-5 {
        fill: #76bf77;
      }

      .cls-6 {
        fill: #50b053;
      }

      .cls-7 {
        fill: #dd373b;
      }

      .cls-8 {
        fill: #eb8333;
      }

      .cls-9 {
        fill: #f1b318;
      }
    </style>
  </defs>
  <!-- Generator: Adobe Illustrator 28.7.1, SVG Export Plug-In . SVG Version: 1.2.0 Build 142)  -->
  <g>
    <g id="Calque_1">
      <g>
        <g>
          <g>
            <path class="cls-1" d="M24.76,49.231c-4.788,0-8.669-3.676-8.669-8.211v-22.04c0-4.535,3.881-8.211,8.669-8.211h170.479c4.788,0,8.669,3.676,8.669,8.211v22.04c0,4.535-3.881,8.211-8.669,8.211H24.76Z"/>
            <path class="cls-2" d="M195.24,10.769c4.788,0,8.669,3.676,8.669,8.211v22.041c0,4.535-3.881,8.211-8.669,8.211H24.76c-4.788,0-8.669-3.676-8.669-8.211v-22.041c0-4.535,3.881-8.211,8.669-8.211h170.479M195.24,5H24.76c-8.139,0-14.76,6.271-14.76,13.98v22.041c0,7.708,6.621,13.98,14.76,13.98h170.479c8.139,0,14.76-6.271,14.76-13.98v-22.041c0-7.708-6.621-13.98-14.76-13.98h0Z"/>
          </g>
          <rect class="cls-5" x="77.005" y="10.645" width="25.381" height="38.71"/>
          <rect class="cls-6" x="51.65" y="10.645" width="25.381" height="38.71"/>
          <rect class="cls-4" x="102.386" y="10.645" width="25.381" height="38.71"/>
          <rect class="cls-9" x="127.766" y="10.645" width="25.381" height="38.71"/>
          <rect class="cls-8" x="153.147" y="10.645" width="25.381" height="38.71"/>
          <path class="cls-7" d="M178.528,10.645h16.842c4.713,0,8.539,3.826,8.539,8.539v21.632c0,4.713-3.826,8.539-8.539,8.539h-16.842V10.645h0Z"/>
        </g>
        <g>
          <rect class="cls-3" x="6.01" y="5.855" width="49.399" height="48.291" rx="10" ry="10" transform="translate(-.121 .125) rotate(-.232)"/>
          <path class="cls-2" d="M45.437,5.795c5.45,0,9.88,4.296,9.905,9.615l.133,28.974c.025,5.335-4.392,9.679-9.864,9.701l-29.587.12c-.014,0-.028,0-.042,0-5.45,0-9.88-4.296-9.905-9.615l-.133-28.974c-.025-5.335,4.392-9.679,9.864-9.701l29.587-.12c.014,0,.028,0,.042,0M45.437,0h-.068S15.783.12,15.783.12c-4.234.017-8.208,1.641-11.189,4.573C1.612,7.625-.019,11.514,0,15.642l.133,28.974c.039,8.483,7.148,15.384,15.848,15.384h.068s29.586-.12,29.586-.12c4.234-.017,8.208-1.641,11.189-4.573,2.981-2.932,4.613-6.82,4.594-10.949l-.133-28.974c-.039-8.483-7.148-15.384-15.848-15.384h0Z"/>
        </g>
        <g>
          <path d="M29.994,38.507l-1.045-3.876h-6.892l-1.074,3.876h-6.297l6.921-20.769h7.647l7.008,20.769h-6.268ZM27.759,30.047l-.914-3.395c-.213-.755-.472-1.731-.776-2.929s-.505-2.056-.602-2.575c-.087.481-.259,1.273-.515,2.377s-.825,3.278-1.705,6.522h4.513Z"/>
          <path d="M39.733,30.188h-5.398v-3.792h5.398v-5.192h3.903v5.192h5.398v3.792h-5.398v5.107h-3.903v-5.107Z"/>
        </g>
      </g>
    </g>
  </g>
</svg>