<?xml version="1.0" encoding="UTF-8"?>
<svg xmlns="http://www.w3.org/2000/svg" version="1.1" viewBox="0 0 200 60">
  <defs>
    <style>
      .cls-1 {
        fill-rule: evenodd;
      }

      .cls-1, .cls-2 {
        fill: #fff;
      }

      .cls-3 {
        fill: #009b6d;
      }

      .cls-4 {
        fill: #f3d61e;
      }

      .cls-5 {
        fill: #76bf77;
      }

      .cls-6 {
        fill: #50b053;
      }

      .cls-7 {
        fill: #dd373b;
      }

      .cls-8 {
        fill: #eb8333;
      }

      .cls-9 {
        fill: #f1b318;
      }
    </style>
  </defs>
  <!-- Generator: Adobe Illustrator 28.7.1, SVG Export Plug-In . SVG Version: 1.2.0 Build 142)  -->
  <g>
    <g id="Calque_1">
      <g>
        <g>
          <path class="cls-1" d="M14.76,49.231c-4.788,0-8.669-3.676-8.669-8.211v-22.04c0-4.535,3.881-8.211,8.669-8.211h170.479c4.788,0,8.669,3.676,8.669,8.211v22.04c0,4.535-3.881,8.211-8.669,8.211H14.76Z"/>
          <path class="cls-2" d="M185.24,10.769c4.788,0,8.669,3.676,8.669,8.21v22.041c0,4.535-3.881,8.21-8.669,8.21H14.76c-4.788,0-8.669-3.676-8.669-8.21v-22.041c0-4.535,3.881-8.21,8.669-8.21h170.479M185.24,5H14.76C6.621,5,0,11.271,0,18.98v22.041c0,7.708,6.621,13.98,14.76,13.98h170.479c8.139,0,14.76-6.271,14.76-13.98v-22.041c0-7.708-6.621-13.98-14.76-13.98h0Z"/>
        </g>
        <rect class="cls-6" x="31.472" y="10.576" width="25.381" height="38.71"/>
        <rect class="cls-5" x="56.853" y="10.576" width="25.381" height="38.71"/>
        <rect class="cls-9" x="117.766" y="10.645" width="25.381" height="38.71"/>
        <rect class="cls-8" x="143.147" y="10.645" width="25.381" height="38.71"/>
        <path class="cls-7" d="M168.528,10.645h16.842c4.713,0,8.539,3.826,8.539,8.539v21.632c0,4.713-3.826,8.539-8.539,8.539h-16.842V10.645h0Z"/>
        <path class="cls-3" d="M6.091,10.576h16.842c4.713,0,8.539,3.826,8.539,8.539v21.632c0,4.713-3.826,8.539-8.539,8.539H6.091V10.576h0Z" transform="translate(37.563 59.863) rotate(180)"/>
        <g>
          <rect class="cls-4" x="82.233" y="5.806" width="35.533" height="48.387" rx="10" ry="10"/>
          <path class="cls-2" d="M107.614,5.806c5.607,0,10.152,4.333,10.152,9.677v29.032c0,5.345-4.545,9.677-10.152,9.677h-15.228c-5.607,0-10.152-4.333-10.152-9.677V15.484c0-5.345,4.545-9.677,10.152-9.677h15.228M107.614,0h-15.228c-8.957,0-16.244,6.946-16.244,15.484v29.032c0,8.538,7.287,15.484,16.244,15.484h15.228c8.957,0,16.244-6.946,16.244-15.484V15.484c0-8.538-7.287-15.484-16.244-15.484h0Z"/>
        </g>
        <path d="M102.149,23.94c-1.398,0-2.488.545-3.272,1.638-.783,1.091-1.175,2.596-1.175,4.515,0,3.988,1.591,5.982,4.774,5.982.962,0,1.894-.128,2.796-.383s1.809-.562,2.721-.921v4.735c-1.814.765-3.867,1.148-6.157,1.148-3.282,0-5.797-.907-7.547-2.722s-2.625-4.437-2.625-7.868c0-2.145.424-4.031,1.272-5.656s2.067-2.875,3.658-3.75c1.591-.873,3.463-1.311,5.614-1.311,2.35,0,4.595.487,6.737,1.46l-1.799,4.409c-.803-.359-1.606-.662-2.409-.907s-1.666-.369-2.588-.369Z"/>
      </g>
    </g>
  </g>
</svg>