<?xml version="1.0" encoding="UTF-8"?>
<svg xmlns="http://www.w3.org/2000/svg" version="1.1" viewBox="0 0 165 518">
  <defs>
    <style>
      .cls-1, .cls-2 {
        fill: #009b6d;
      }

      .cls-3 {
        fill: #f3d61e;
      }

      .cls-4 {
        fill: #76bf77;
      }

      .cls-2, .cls-5 {
        fill-rule: evenodd;
      }

      .cls-6 {
        fill: #50b053;
      }

      .cls-7 {
        fill: #fff;
      }

      .cls-5 {
        fill: #dd373b;
      }

      .cls-8 {
        fill: #eb8333;
      }

      .cls-9 {
        fill: #f1b318;
      }
    </style>
  </defs>
  <!-- Generator: Adobe Illustrator 28.7.1, SVG Export Plug-In . SVG Version: 1.2.0 Build 142)  -->
  <g>
    <g id="Calque_1">
      <g>
        <g>
          <path class="cls-2" d="M145,98.025l-120,.013v-50.036c.01-11.044,9.01-19.992,20.053-19.994l79.979-.009c11.059-.001,19.978,8.97,19.968,20.03v49.995Z"/>
          <rect class="cls-6" x="25" y="98.032" width="120" height="70.04"/>
          <rect class="cls-4" x="25" y="168.072" width="120" height="70.04"/>
          <rect class="cls-3" x="25" y="238.112" width="120" height="70.04"/>
          <rect class="cls-9" x="25" y="308.153" width="120" height="70.04"/>
          <rect class="cls-8" x="25" y="378.193" width="120" height="70.04"/>
          <path class="cls-5" d="M125.01,517.991l-79.979.009c-11.059.001-20.041-8.936-20.031-19.955v-49.81l120-.013v49.851c-.01,11.003-8.947,19.918-19.99,19.92Z"/>
        </g>
        <g>
          <g>
            <rect class="cls-1" x="7.952" y="7.937" width="149.096" height="109.127" rx="20" ry="20"/>
            <path class="cls-7" d="M137.169,7.937c10.979,0,19.88,8.883,19.88,19.841v69.444c0,10.958-8.9,19.841-19.88,19.841H27.831c-10.979,0-19.88-8.883-19.88-19.841V27.778c0-10.958,8.9-19.841,19.88-19.841h109.337M137.169,0H27.831C12.485,0,0,12.461,0,27.778v69.444c0,15.317,12.485,27.778,27.831,27.778h109.337c15.346,0,27.831-12.461,27.831-27.778V27.778c0-15.317-12.485-27.778-27.831-27.778h0Z"/>
          </g>
          <g>
            <path d="M77.507,91.399l-2.796-10.743h-18.443l-2.873,10.743h-16.851l18.521-57.557h20.462l18.754,57.557h-16.773ZM71.527,67.953l-2.446-9.41c-.57-2.091-1.262-4.796-2.077-8.116-.815-3.319-1.353-5.698-1.611-7.136-.233,1.333-.693,3.529-1.378,6.587-.686,3.058-2.207,9.083-4.562,18.075h12.075Z"/>
            <path d="M103.568,68.345h-14.444v-10.508h14.444v-14.389h10.445v14.389h14.444v10.508h-14.444v14.154h-10.445v-14.154Z"/>
          </g>
        </g>
      </g>
    </g>
  </g>
</svg>